# xmcd
#
# Track frame offsets: 
#        150
#        18785
#        33298
#        50873
#        66538
#        85598
#        99598
#        115918
#        130420
#        145289
#        155023
#        170990
#
# Disc length: 2399 seconds
#
# Revision: 0
# Processed by: cddbd v1.5.2PL0 Copyright (c) Steve Scherf et al.
# Submitted via: ExactAudioCopy v1.0b3
#
DISCID=ac095d0c
DTITLE=The Kentucky Headhunters - On Safari
DYEAR=2016
DGENRE=Southern Rock
TTITLE0=Beaver Creek Mansion
TTITLE1=Deep South Blues Again
TTITLE2=I Am The Hunter
TTITLE3=Caught In A Dream
TTITLE4=Crazy Jim
TTITLE5=Big Time
TTITLE6=Lowdown Memphis Town Blues
TTITLE7=Rainbow Shine
TTITLE8=Way Down Yonder
TTITLE9=Jukebox Full Of Blues
TTITLE10=God Loves A Rolling Stone
TTITLE11=Govenor's Cup
EXTD=
EXTT0=
EXTT1=
EXTT2=
EXTT3=
EXTT4=
EXTT5=
EXTT6=
EXTT7=
EXTT8=
EXTT9=
EXTT10=
EXTT11=
PLAYORDER=
